# xmcd
#
# Track frame offsets:
#	150
#	44697
#	81433
#	117174
#	131135
#	157480
#	225614
#
# Disc length: 3290 seconds
#
# Revision: 0
# Processed by: cddbd v1.5.2PL0 Copyright (c) Steve Scherf et al.
# Submitted via: audiograbber 1.83.01
#
DISCID=640cd807
DTITLE=Grateful Dead - 93-03-20 The Omni, Atlanta GA
DYEAR=1900
DGENRE=
TTITLE0=Mississippi Half-Step Uptown Toodeloo
TTITLE1=It's All Over Now
TTITLE2=So Many Roads
TTITLE3=Me and My Uncle
TTITLE4=Maggie's Farm
TTITLE5=Bird Song
TTITLE6=Promised Land
EXTD=
EXTT0=
EXTT1=
EXTT2=
EXTT3=
EXTT4=
EXTT5=
EXTT6=
PLAYORDER=
